<svg xmlns="http://www.w3.org/2000/svg" xmlns:xlink="http://www.w3.org/1999/xlink" width="180" zoomAndPan="magnify" viewBox="0 0 135 74.999997" height="100" preserveAspectRatio="xMidYMid meet" version="1.0"><defs><g/><clipPath id="7c30f71268"><path d="M 0 10.5 L 69.75 10.5 L 69.75 64.5 L 0 64.5 Z M 0 10.5 " clip-rule="nonzero"/></clipPath></defs><g clip-path="url(#7c30f71268)"><path fill="#38b6ff" d="M 19.195312 32.871094 C 17.824219 33.660156 17.34375 34.996094 17.183594 36.539062 L 9.507812 32.105469 L 6.351562 33.921875 L 6.351562 35.863281 L 17.105469 42.066406 L 17.105469 52.238281 C 17.105469 54.339844 18.726562 55.550781 20.578125 56.648438 L 32.847656 63.730469 C 34.664062 64.769531 36.527344 63.96875 38.402344 62.917969 L 50.671875 55.835938 C 52.464844 54.785156 52.707031 52.773438 52.726562 50.625 L 52.726562 42.066406 L 66.757812 33.96875 C 70.378906 31.875 71.316406 31.019531 66.757812 28.390625 L 38.148438 11.882812 C 35.074219 10.097656 34.550781 10.226562 31.398438 12.042969 L 3.074219 28.390625 C -1.484375 31.019531 -0.535156 31.875 3.074219 33.96875 L 3.074219 41.667969 C 1.429688 42.332031 1.164062 44.570312 2.628906 45.597656 C 2.433594 45.859375 2.308594 46.191406 2.308594 46.558594 L 2.308594 54.042969 L 5.507812 54.042969 L 5.507812 46.558594 C 5.507812 46.203125 5.394531 45.871094 5.1875 45.597656 C 6.511719 44.671875 6.476562 42.777344 5.097656 41.851562 L 4.742188 41.667969 L 4.742188 32.996094 L 32.722656 16.839844 C 35.28125 15.355469 34.925781 15.59375 38.253906 17.515625 L 38.253906 25.71875 L 36.984375 24.988281 C 35.167969 23.945312 33.304688 24.746094 31.429688 25.796875 L 19.183594 32.871094 Z M 52.707031 25.855469 L 59.835938 29.96875 C 61.492188 30.929688 62.121094 31.054688 61.195312 31.589844 L 52.726562 36.480469 L 52.707031 25.84375 Z M 47.894531 31.292969 C 51.484375 33.363281 51.460938 33.554688 47.894531 31.292969 Z M 21.9375 48.84375 L 21.9375 39.898438 C 21.949219 37.359375 22.554688 36.539062 24.667969 35.292969 L 32.175781 30.960938 C 34.308594 29.738281 35.328125 29.636719 37.519531 30.894531 L 43.0625 34.09375 L 43.0625 20.3125 L 47.894531 23.101562 L 47.894531 48.71875 C 47.882812 51.175781 47.472656 52.109375 45.277344 53.390625 L 37.53125 57.867188 L 34.914062 59.378906 L 32.183594 57.800781 L 24.679688 53.46875 C 22.554688 52.238281 21.949219 51.402344 21.949219 48.867188 Z M 21.9375 48.84375 " fill-opacity="1" fill-rule="evenodd"/></g><path fill="#000000" d="M 32.699219 36.21875 L 27.71875 39.097656 C 26.871094 39.589844 26.769531 40.523438 26.757812 41.519531 L 26.757812 47.953125 C 26.757812 48.921875 27.523438 49.484375 28.378906 49.996094 L 28.609375 50.132812 L 33.945312 53.21875 L 34.90625 53.765625 L 42.101562 49.609375 C 42.9375 49.128906 43.050781 48.191406 43.0625 47.199219 L 43.0625 39.644531 L 35.863281 35.5 L 34.90625 34.949219 L 32.6875 36.230469 Z M 32.699219 36.21875 " fill-opacity="1" fill-rule="evenodd"/><g fill="#000000" fill-opacity="1"><g transform="translate(71.733234, 26.971813)"><g><path d="M 3.5625 0 L 0.53125 0 C 0.382812 0 0.285156 -0.0507812 0.234375 -0.15625 C 0.179688 -0.257812 0.179688 -0.375 0.234375 -0.5 L 5.8125 -12.96875 C 5.875 -13.101562 5.960938 -13.21875 6.078125 -13.3125 C 6.203125 -13.414062 6.332031 -13.46875 6.46875 -13.46875 L 7.640625 -13.46875 C 7.804688 -13.46875 7.945312 -13.414062 8.0625 -13.3125 C 8.1875 -13.21875 8.273438 -13.101562 8.328125 -12.96875 L 13.90625 -0.5 C 13.957031 -0.375 13.957031 -0.257812 13.90625 -0.15625 C 13.851562 -0.0507812 13.75 0 13.59375 0 L 10.796875 0 C 10.628906 0 10.484375 -0.046875 10.359375 -0.140625 C 10.242188 -0.234375 10.15625 -0.351562 10.09375 -0.5 L 8.671875 -3.671875 L 2.5625 -3.671875 L 3.984375 -0.5 C 4.046875 -0.351562 4.039062 -0.234375 3.96875 -0.140625 C 3.894531 -0.046875 3.757812 0 3.5625 0 Z M 8.5625 -3.9375 L 5.3125 -11.234375 L 2.25 -4.359375 L 2.4375 -3.9375 Z M 8.5625 -3.9375 "/></g></g></g><g fill="#000000" fill-opacity="1"><g transform="translate(85.872788, 26.971813)"><g><path d="M 6.546875 0 L 1.96875 0 C 1.800781 -0.0195312 1.6875 -0.0664062 1.625 -0.140625 C 1.5625 -0.222656 1.53125 -0.34375 1.53125 -0.5 L 1.53125 -10.15625 C 1.53125 -10.488281 1.675781 -10.65625 1.96875 -10.65625 L 6.5 -10.65625 C 7.257812 -10.65625 7.988281 -10.59375 8.6875 -10.46875 C 9.394531 -10.351562 10.023438 -10.113281 10.578125 -9.75 C 11.128906 -9.394531 11.566406 -8.863281 11.890625 -8.15625 C 12.210938 -7.445312 12.375 -6.507812 12.375 -5.34375 C 12.375 -4.175781 12.210938 -3.238281 11.890625 -2.53125 C 11.566406 -1.820312 11.128906 -1.28125 10.578125 -0.90625 C 10.035156 -0.539062 9.414062 -0.296875 8.71875 -0.171875 C 8.019531 -0.0546875 7.296875 0 6.546875 0 Z M 6.234375 -10.421875 L 4.921875 -10.421875 L 4.921875 -0.234375 L 6.265625 -0.234375 C 6.753906 -0.234375 7.203125 -0.445312 7.609375 -0.875 C 8.015625 -1.3125 8.335938 -1.914062 8.578125 -2.6875 C 8.816406 -3.457031 8.9375 -4.34375 8.9375 -5.34375 C 8.9375 -6.34375 8.8125 -7.222656 8.5625 -7.984375 C 8.3125 -8.753906 7.984375 -9.351562 7.578125 -9.78125 C 7.171875 -10.207031 6.722656 -10.421875 6.234375 -10.421875 Z M 6.234375 -10.421875 "/></g></g></g><g fill="#000000" fill-opacity="1"><g transform="translate(98.915804, 26.971813)"><g><path d="M 13.671875 0 L 10.8125 0 C 10.53125 0 10.390625 -0.164062 10.390625 -0.5 L 10.390625 -8.140625 L 6.578125 -1.90625 L 6.265625 -1.90625 L 2.03125 -8.640625 L 2.03125 -3.40625 L 3.359375 -1.28125 C 3.460938 -1.113281 3.550781 -0.976562 3.625 -0.875 C 3.695312 -0.769531 3.734375 -0.625 3.734375 -0.4375 C 3.734375 -0.144531 3.59375 0 3.3125 0 L 2.1875 0 C 1.90625 0 1.765625 -0.164062 1.765625 -0.5 L 1.765625 -9.078125 L 0.9375 -10.40625 C 0.9375 -10.46875 0.945312 -10.519531 0.96875 -10.5625 C 0.988281 -10.601562 1.046875 -10.625 1.140625 -10.625 L 4.40625 -10.625 C 4.707031 -10.625 4.941406 -10.488281 5.109375 -10.21875 L 8.265625 -5.171875 L 11.484375 -10.3125 C 11.546875 -10.4375 11.625 -10.519531 11.71875 -10.5625 C 11.820312 -10.601562 11.957031 -10.625 12.125 -10.625 L 13.671875 -10.625 C 13.953125 -10.625 14.09375 -10.457031 14.09375 -10.125 L 14.09375 -0.5 C 14.09375 -0.164062 13.953125 0 13.671875 0 Z M 13.671875 0 "/></g></g></g><g fill="#000000" fill-opacity="1"><g transform="translate(114.555884, 26.971813)"><g><path d="M 2.09375 -10.625 L 4.546875 -10.625 C 4.828125 -10.625 4.96875 -10.457031 4.96875 -10.125 L 4.96875 -0.5 C 4.96875 -0.164062 4.828125 0 4.546875 0 L 2.09375 0 C 1.8125 0 1.671875 -0.164062 1.671875 -0.5 L 1.671875 -10.125 C 1.671875 -10.457031 1.8125 -10.625 2.09375 -10.625 Z M 1.53125 -13.421875 C 1.53125 -13.910156 1.703125 -14.328125 2.046875 -14.671875 C 2.398438 -15.015625 2.820312 -15.1875 3.3125 -15.1875 C 3.800781 -15.1875 4.21875 -15.015625 4.5625 -14.671875 C 4.90625 -14.328125 5.078125 -13.910156 5.078125 -13.421875 C 5.078125 -12.929688 4.90625 -12.515625 4.5625 -12.171875 C 4.21875 -11.828125 3.800781 -11.65625 3.3125 -11.65625 C 2.820312 -11.65625 2.398438 -11.828125 2.046875 -12.171875 C 1.703125 -12.515625 1.53125 -12.929688 1.53125 -13.421875 Z M 1.53125 -13.421875 "/></g></g></g><g fill="#000000" fill-opacity="1"><g transform="translate(121.173577, 26.971813)"><g><path d="M 10.125 -10.125 L 10.125 -6.671875 C 10.125 -6.441406 10.03125 -6.328125 9.84375 -6.328125 L 9.734375 -6.328125 C 9.640625 -6.328125 9.546875 -6.378906 9.453125 -6.484375 C 9.367188 -6.585938 9.28125 -6.703125 9.1875 -6.828125 L 6.890625 -10.34375 L 6.734375 -10.34375 L 6.734375 -0.5 C 6.734375 -0.164062 6.59375 0 6.3125 0 L 4.1875 0 C 3.90625 0 3.765625 -0.164062 3.765625 -0.5 L 3.765625 -10.34375 L 3.609375 -10.34375 L 1.3125 -6.828125 C 1.21875 -6.703125 1.125 -6.585938 1.03125 -6.484375 C 0.945312 -6.378906 0.859375 -6.328125 0.765625 -6.328125 L 0.65625 -6.328125 C 0.476562 -6.328125 0.390625 -6.441406 0.390625 -6.671875 L 0.390625 -10.125 C 0.390625 -10.457031 0.53125 -10.625 0.8125 -10.625 L 9.6875 -10.625 C 9.976562 -10.625 10.125 -10.457031 10.125 -10.125 Z M 10.125 -10.125 "/></g></g></g><g fill="#38b6ff" fill-opacity="1"><g transform="translate(71.733234, 53.836811)"><g><path d="M 9.796875 -4.796875 L 7.046875 -12.96875 C 7.003906 -13.09375 7.003906 -13.207031 7.046875 -13.3125 C 7.085938 -13.414062 7.1875 -13.46875 7.34375 -13.46875 L 10.15625 -13.46875 C 10.363281 -13.46875 10.515625 -13.414062 10.609375 -13.3125 C 10.710938 -13.21875 10.789062 -13.101562 10.84375 -12.96875 L 15.09375 -0.390625 L 16.546875 -4.765625 L 13.796875 -12.96875 C 13.753906 -13.09375 13.753906 -13.207031 13.796875 -13.3125 C 13.847656 -13.414062 13.945312 -13.46875 14.09375 -13.46875 L 16.90625 -13.46875 C 17.113281 -13.46875 17.265625 -13.414062 17.359375 -13.3125 C 17.460938 -13.21875 17.539062 -13.101562 17.59375 -12.96875 L 18.515625 -10.15625 C 18.546875 -10.101562 18.566406 -10.046875 18.578125 -9.984375 C 18.585938 -9.921875 18.582031 -9.859375 18.5625 -9.796875 L 15.3125 -0.21875 C 15.257812 -0.0703125 15.175781 0 15.0625 0 L 11.9375 0 C 11.769531 0 11.625 -0.0507812 11.5 -0.15625 C 11.382812 -0.257812 11.300781 -0.375 11.25 -0.5 L 9.921875 -4.40625 L 8.5 -0.21875 C 8.445312 -0.0703125 8.363281 0 8.25 0 L 5.140625 0 C 4.972656 0 4.828125 -0.0507812 4.703125 -0.15625 C 4.578125 -0.257812 4.488281 -0.375 4.4375 -0.5 L 0.234375 -12.96875 C 0.191406 -13.09375 0.191406 -13.207031 0.234375 -13.3125 C 0.285156 -13.414062 0.382812 -13.46875 0.53125 -13.46875 L 3.34375 -13.46875 C 3.550781 -13.46875 3.707031 -13.414062 3.8125 -13.3125 C 3.914062 -13.21875 3.992188 -13.101562 4.046875 -12.96875 L 8.296875 -0.390625 Z M 9.796875 -4.796875 "/></g></g></g><g fill="#38b6ff" fill-opacity="1"><g transform="translate(90.509023, 53.836811)"><g><path d="M 2.09375 -10.625 L 4.546875 -10.625 C 4.828125 -10.625 4.96875 -10.457031 4.96875 -10.125 L 4.96875 -0.5 C 4.96875 -0.164062 4.828125 0 4.546875 0 L 2.09375 0 C 1.8125 0 1.671875 -0.164062 1.671875 -0.5 L 1.671875 -10.125 C 1.671875 -10.457031 1.8125 -10.625 2.09375 -10.625 Z M 1.53125 -13.421875 C 1.53125 -13.910156 1.703125 -14.328125 2.046875 -14.671875 C 2.398438 -15.015625 2.820312 -15.1875 3.3125 -15.1875 C 3.800781 -15.1875 4.21875 -15.015625 4.5625 -14.671875 C 4.90625 -14.328125 5.078125 -13.910156 5.078125 -13.421875 C 5.078125 -12.929688 4.90625 -12.515625 4.5625 -12.171875 C 4.21875 -11.828125 3.800781 -11.65625 3.3125 -11.65625 C 2.820312 -11.65625 2.398438 -11.828125 2.046875 -12.171875 C 1.703125 -12.515625 1.53125 -12.929688 1.53125 -13.421875 Z M 1.53125 -13.421875 "/></g></g></g><g fill="#38b6ff" fill-opacity="1"><g transform="translate(97.126719, 53.836811)"><g><path d="M 6.671875 -6.71875 C 7.554688 -6.46875 8.289062 -6.1875 8.875 -5.875 C 9.457031 -5.570312 9.894531 -5.195312 10.1875 -4.75 C 10.476562 -4.3125 10.625 -3.753906 10.625 -3.078125 C 10.625 -1.921875 10.175781 -1.085938 9.28125 -0.578125 C 8.382812 -0.0664062 7.160156 0.1875 5.609375 0.1875 L 4.578125 0.1875 L 1.765625 0 C 1.484375 -0.0078125 1.34375 -0.175781 1.34375 -0.5 L 1.328125 -4 C 1.328125 -4.226562 1.414062 -4.34375 1.59375 -4.34375 L 1.734375 -4.34375 C 1.835938 -4.34375 1.9375 -4.296875 2.03125 -4.203125 C 2.125 -4.117188 2.226562 -4 2.34375 -3.84375 L 5.140625 -0.078125 L 5.515625 -0.078125 C 6.160156 -0.078125 6.640625 -0.285156 6.953125 -0.703125 C 7.265625 -1.128906 7.421875 -1.609375 7.421875 -2.140625 C 7.421875 -2.492188 7.375 -2.796875 7.28125 -3.046875 C 7.195312 -3.304688 7.015625 -3.535156 6.734375 -3.734375 C 6.460938 -3.941406 6.039062 -4.128906 5.46875 -4.296875 C 4.300781 -4.648438 3.414062 -5.003906 2.8125 -5.359375 C 2.207031 -5.710938 1.796875 -6.101562 1.578125 -6.53125 C 1.359375 -6.96875 1.25 -7.476562 1.25 -8.0625 C 1.25 -8.5625 1.4375 -9.019531 1.8125 -9.4375 C 2.195312 -9.851562 2.765625 -10.1875 3.515625 -10.4375 C 4.265625 -10.6875 5.191406 -10.8125 6.296875 -10.8125 L 7.390625 -10.8125 L 9.625 -10.5625 C 9.789062 -10.550781 9.898438 -10.503906 9.953125 -10.421875 C 10.015625 -10.335938 10.046875 -10.21875 10.046875 -10.0625 L 10.0625 -7.5625 C 10.0625 -7.332031 9.972656 -7.21875 9.796875 -7.21875 L 9.65625 -7.21875 C 9.550781 -7.21875 9.453125 -7.257812 9.359375 -7.34375 C 9.265625 -7.4375 9.160156 -7.5625 9.046875 -7.71875 L 6.828125 -10.546875 L 6.390625 -10.546875 C 5.890625 -10.546875 5.445312 -10.410156 5.0625 -10.140625 C 4.675781 -9.878906 4.484375 -9.488281 4.484375 -8.96875 C 4.484375 -8.476562 4.648438 -8.035156 4.984375 -7.640625 C 5.328125 -7.242188 5.890625 -6.9375 6.671875 -6.71875 Z M 6.671875 -6.71875 "/></g></g></g><g fill="#38b6ff" fill-opacity="1"><g transform="translate(108.707687, 53.836811)"><g><path d="M 1.96875 -10.625 L 9.875 -10.625 C 10.15625 -10.625 10.296875 -10.457031 10.296875 -10.125 L 10.296875 -7.59375 C 10.296875 -7.257812 10.15625 -7.09375 9.875 -7.09375 L 9.75 -7.09375 C 9.625 -7.09375 9.484375 -7.144531 9.328125 -7.25 C 9.171875 -7.351562 9.023438 -7.457031 8.890625 -7.5625 L 5.578125 -10.34375 L 4.828125 -10.34375 L 4.828125 -5.5625 L 8.9375 -5.65625 L 8.9375 -5.1875 L 4.828125 -5.296875 L 4.828125 -0.265625 L 5.578125 -0.265625 L 10.734375 -3.890625 C 10.773438 -3.910156 10.8125 -3.925781 10.84375 -3.9375 C 10.875 -3.957031 10.898438 -3.96875 10.921875 -3.96875 C 10.972656 -3.96875 11.015625 -3.953125 11.046875 -3.921875 L 11.265625 -3.75 C 11.316406 -3.707031 11.335938 -3.664062 11.328125 -3.625 C 11.328125 -3.582031 11.316406 -3.535156 11.296875 -3.484375 L 10.09375 -0.5 C 10.039062 -0.34375 9.972656 -0.21875 9.890625 -0.125 C 9.804688 -0.0390625 9.695312 0 9.5625 0 L 1.96875 0 C 1.675781 0 1.53125 -0.164062 1.53125 -0.5 L 1.53125 -10.125 C 1.53125 -10.457031 1.675781 -10.625 1.96875 -10.625 Z M 1.96875 -10.625 "/></g></g></g></svg>